<svg id="Layer_1" data-name="Layer 1" xmlns="http://www.w3.org/2000/svg" viewBox="0 0 49.24 49.24"><defs><style>.cls-1{fill:#e0e6e8;}</style></defs><path class="cls-1" d="M25,49.62A24.62,24.62,0,1,1,49.62,25,24.65,24.65,0,0,1,25,49.62ZM25,4A21,21,0,1,0,46,25,21,21,0,0,0,25,4Z" transform="translate(-0.38 -0.38)"/><path class="cls-1" d="M14.39,46.07s10-31.14,21.22.69" transform="translate(-0.38 -0.38)"/><path class="cls-1" d="M35.33,46.85C32,37.48,28.55,32.73,25,32.73h0C19,32.81,14.72,46,14.67,46.16L14.1,46c.18-.56,4.5-13.76,10.83-13.84H25c3.85,0,7.51,4.88,10.91,14.53Z" transform="translate(-0.38 -0.38)"/><circle class="cls-1" cx="24.35" cy="24.35" r="9.55"/><path class="cls-1" d="M24.73,34.59a9.86,9.86,0,1,1,9.86-9.86A9.86,9.86,0,0,1,24.73,34.59Zm0-19.11A9.26,9.26,0,1,0,34,24.73,9.26,9.26,0,0,0,24.73,15.48Z" transform="translate(-0.38 -0.38)"/></svg>